<?xml version="1.0" standalone="no"?>
<!DOCTYPE svg PUBLIC "-//W3C//DTD SVG 20010904//EN"
 "http://www.w3.org/TR/2001/REC-SVG-20010904/DTD/svg10.dtd">
<svg version="1.0" xmlns="http://www.w3.org/2000/svg"
 width="391.000000pt" height="413.000000pt" viewBox="0 0 391.000000 413.000000"
 preserveAspectRatio="xMidYMid meet">

<g transform="translate(0.000000,413.000000) scale(0.100000,-0.100000)"
fill="#000000" stroke="none">
<path d="M2458 4016 c-47 -19 -188 -112 -188 -124 0 -4 6 0 98 60 41 26 98 55
128 65 50 15 56 16 89 0 50 -24 58 -64 40 -197 -8 -58 -17 -127 -20 -155 -10
-80 -13 -82 -46 -32 -45 69 -168 178 -240 213 -116 57 -215 93 -289 105 -115
17 -718 6 -792 -15 -76 -22 -272 -109 -321 -143 -81 -56 -227 -246 -252 -328
-4 -11 8 5 25 36 66 117 161 231 235 280 99 65 279 135 386 149 120 16 742 9
787 -9 17 -7 32 -17 32 -22 0 -4 15 -15 33 -24 53 -25 180 -172 346 -400 135
-187 211 -373 276 -680 34 -159 43 -197 90 -370 14 -50 36 -144 50 -210 45
-213 76 -349 90 -395 16 -49 56 -301 80 -505 29 -241 70 -455 116 -610 59
-200 110 -352 122 -369 14 -19 16 -19 59 -2 58 21 74 40 83 96 4 25 12 48 18
52 7 4 7 23 -1 60 l-11 54 66 70 c115 122 203 280 203 366 0 86 -50 115 -209
124 -63 4 -101 1 -141 -11 -96 -29 -88 -36 -137 115 -53 160 -79 306 -60 329
7 9 35 41 62 71 74 84 215 394 215 473 0 30 -41 82 -81 102 -67 35 -253 2
-314 -55 -13 -12 -25 -18 -28 -13 -8 12 -63 226 -77 295 l-11 57 44 68 c24 37
79 122 122 188 97 149 155 267 155 314 0 42 -28 93 -65 117 -14 9 -63 21 -108
27 -101 12 -218 -8 -278 -48 l-39 -25 -13 28 c-8 15 -31 73 -52 129 -21 58
-56 129 -81 165 -24 35 -44 75 -44 89 0 14 9 84 20 155 11 71 20 157 20 192 0
57 -3 67 -29 93 -37 36 -83 38 -163 5z m708 -807 c60 -15 104 -65 104 -119 0
-47 -52 -153 -144 -290 -35 -52 -82 -125 -106 -162 -23 -38 -45 -68 -49 -68
-4 0 -13 33 -19 73 -18 105 -77 314 -116 415 -19 48 -32 90 -29 94 7 13 65 41
113 54 57 16 188 17 246 3z m198 -980 c22 -6 53 -24 69 -40 27 -27 29 -35 23
-75 -6 -47 -63 -188 -126 -314 -34 -68 -121 -180 -139 -180 -4 0 -13 37 -20
83 -14 93 -60 292 -89 385 l-20 62 28 20 c32 23 96 48 155 60 57 11 75 11 119
-1z m257 -1099 c77 -15 103 -37 107 -92 5 -71 -77 -224 -175 -328 -57 -61 -78
-78 -84 -67 -24 43 -149 428 -149 460 0 3 21 13 48 21 56 17 177 20 253 6z"/>
<path d="M1584 3584 c-5 -20 -2 -31 11 -40 25 -18 47 0 43 35 -4 38 -45 42
-54 5z"/>
<path d="M851 3581 c-17 -31 -13 -69 9 -81 28 -15 57 30 44 68 -12 33 -39 40
-53 13z"/>
<path d="M580 3304 c-14 -8 -70 -30 -125 -50 -55 -20 -115 -45 -133 -56 -92
-56 -148 -214 -126 -350 11 -66 21 -41 16 41 -3 64 0 92 18 146 38 113 89 155
273 220 42 15 84 36 93 46 20 22 18 22 -16 3z"/>
<path d="M815 2953 c-152 -16 -596 -115 -581 -130 2 -3 36 3 75 13 40 9 74 15
76 12 9 -9 -36 -102 -63 -130 -31 -34 -56 -35 -76 -6 -9 12 -16 17 -16 11 0
-18 29 -43 50 -43 32 0 76 47 106 115 19 44 36 67 49 70 97 21 257 46 262 41
6 -6 -61 -83 -114 -129 -40 -35 -61 -30 -98 23 -33 47 -42 52 -20 10 8 -16 31
-42 50 -57 19 -15 35 -36 35 -45 0 -42 24 -121 43 -144 l22 -25 40 21 c24 12
43 16 48 11 11 -11 68 -6 232 20 179 29 190 28 265 -17 58 -35 71 -39 125 -37
33 1 86 -4 118 -12 60 -14 142 -8 203 15 36 14 76 12 98 -5 11 -8 41 -15 67
-15 55 0 52 4 68 -120 22 -176 30 -316 24 -417 l-6 -104 -48 -43 c-52 -46
-144 -85 -251 -106 -151 -29 -550 -26 -686 5 -181 42 -268 150 -279 345 -5 75
-1 102 31 224 20 76 36 155 35 175 -1 27 -4 19 -14 -34 -8 -38 -25 -113 -39
-164 -40 -146 -34 -281 15 -386 l21 -44 -29 -25 -28 -25 23 -44 24 -45 -20
-38 c-11 -22 -25 -57 -32 -79 -7 -22 -40 -105 -72 -185 -120 -290 -257 -733
-274 -881 -11 -99 10 -66 29 45 27 159 140 519 262 831 34 88 72 188 85 223
12 34 24 62 27 62 6 0 54 -32 108 -72 48 -36 75 -47 75 -30 0 4 -34 32 -76 62
-119 85 -157 139 -120 169 12 10 27 3 76 -33 79 -58 159 -83 314 -97 147 -14
460 -5 565 16 105 21 231 84 273 137 l33 42 -1 211 c0 214 -24 435 -59 553
-32 107 -94 171 -205 210 -234 83 -300 94 -570 97 -129 1 -253 1 -275 -2z
m115 -30 c0 -20 -51 -101 -83 -131 -14 -13 -30 -20 -40 -17 -18 7 -74 132 -63
142 5 6 56 12 169 22 10 0 17 -6 17 -16z m280 5 c-1 -28 -62 -109 -94 -125
-47 -22 -85 -5 -131 57 -54 74 -47 80 101 80 93 0 124 -3 124 -12z m132 -8
c93 -19 98 -20 98 -28 0 -4 -18 -26 -40 -49 -45 -49 -76 -55 -108 -20 -18 19
-52 85 -52 102 0 8 45 6 102 -5z m337 -96 c6 -6 -49 -63 -72 -76 -45 -24 -78
9 -93 94 l-6 37 83 -26 c46 -14 86 -27 88 -29z m-905 -50 c3 -8 2 -12 -4 -9
-6 3 -10 10 -10 16 0 14 7 11 14 -7z m-117 -106 c-3 -8 -6 -5 -6 6 -1 11 2 17
5 13 3 -3 4 -12 1 -19z m-17 -78 c8 -5 11 -10 5 -10 -5 0 -17 5 -25 10 -8 5
-10 10 -5 10 6 0 17 -5 25 -10z"/>
<path d="M845 2400 c-21 -23 -13 -65 17 -83 38 -25 63 37 32 81 -19 27 -26 27
-49 2z"/>
<path d="M1410 2391 c-14 -26 -13 -53 3 -75 28 -39 67 16 47 68 -11 31 -35 34
-50 7z"/>
<path d="M1103 2125 c-15 -11 -21 -25 -21 -48 1 -36 12 -47 48 -46 24 1 24 1
-5 14 -19 9 -24 14 -12 15 21 0 23 20 2 20 -21 0 -19 27 2 39 10 5 15 12 12
15 -3 3 -15 -1 -26 -9z"/>
<path d="M1910 1499 c-46 -66 -196 -254 -265 -332 -214 -244 -284 -338 -335
-451 -42 -91 -47 -133 -22 -188 51 -116 220 -162 457 -124 502 80 526 85 695
161 52 23 118 50 146 59 28 9 60 23 70 31 18 13 17 14 -12 15 -38 0 -82 -15
-234 -80 -134 -57 -221 -81 -380 -105 -63 -9 -149 -23 -190 -31 -220 -40 -343
-38 -435 6 -109 53 -122 121 -51 266 46 95 107 179 245 338 103 118 280 344
316 404 32 53 28 79 -5 31z"/>
</g>
</svg>
